<svg width="48" height="48" viewBox="0 0 48 48" fill="none" xmlns="http://www.w3.org/2000/svg">
<rect x="0.5" y="0.5" width="47" height="47" rx="7.5" fill="#081F4A"/>
<path d="M28.6186 7.5H9.75C8.92157 7.5 8.25 8.17157 8.25 9V10.0909C8.25 10.9193 8.92157 11.5909 9.75 11.5909H21.3258C22.4326 11.5909 23.1582 12.7486 22.6758 13.7447L10.8933 38.0734C10.4109 39.0696 11.1365 40.2272 12.2433 40.2272H14.2441C14.8191 40.2272 15.3435 39.8985 15.5941 39.381L29.053 11.5909L29.9747 9.64104C30.4451 8.64596 29.7192 7.5 28.6186 7.5Z" fill="white"/>
<path d="M18.8853 40.2275H37.7539C38.5823 40.2275 39.2539 39.556 39.2539 38.7275V37.6366C39.2539 36.8082 38.5823 36.1366 37.7539 36.1366H26.1781C25.0713 36.1366 24.3457 34.979 24.8281 33.9828L36.6106 9.65412C37.093 8.65799 36.3674 7.50031 35.2606 7.50031H33.2598C32.6848 7.50031 32.1604 7.82899 31.9098 8.34649L18.4509 36.1366L17.5292 38.0865C17.0588 39.0816 17.7847 40.2275 18.8853 40.2275Z" fill="white"/>
<path d="M19.4165 23.3669C19.4468 23.5448 19.4841 23.7203 19.5285 23.8936C19.5726 24.0664 19.6332 24.2368 19.7102 24.4048L19.4165 23.3669ZM19.4165 23.3669L17.0271 22.424M19.4165 23.3669L20.654 18.5113M18.103 18.1895L20.654 18.5113M18.103 18.1895L17.0271 22.424M18.103 18.1895L18.0717 18.4376L18.2909 18.4652M18.103 18.1895L18.3453 18.2511L18.2909 18.4652M20.654 18.5113C20.7094 18.4356 20.7673 18.3668 20.8277 18.3049L21.2032 17.9205C21.2632 17.859 21.3305 17.7997 21.4048 17.7425M20.654 18.5113L21.4048 17.7425M17.0271 22.424L17.2694 22.4856L17.3236 22.2723M17.0271 22.424L17.1189 22.1915L17.3236 22.2723M17.3236 22.2723L19.5083 23.1343L19.6394 23.1861L19.663 23.325C19.6921 23.4961 19.728 23.6649 19.7707 23.8314L19.7708 23.8318C19.811 23.9896 19.8665 24.1458 19.9374 24.3006L19.9999 24.4367L19.9093 24.5559L18.4907 26.4249M17.3236 22.2723L18.2909 18.4652M18.4907 26.4249L30.8021 20.7376C30.7615 20.5795 30.7059 20.4231 30.6349 20.2683L30.5725 20.1322L30.663 20.013L32.0816 18.144M18.4907 26.4249L21.307 29.1756L23.142 27.7133L23.2555 27.6229L23.3903 27.6766C23.5395 27.736 23.6984 27.7869 23.8672 27.8292C24.038 27.872 24.2084 27.9058 24.3785 27.9306L24.5184 27.951L24.573 28.0815L25.4725 30.2304L29.255 29.1738L28.906 26.8496L28.8806 26.6803L29.0293 26.5954C29.0953 26.5577 29.1484 26.5166 29.1909 26.4732L29.5663 26.0888C29.6174 26.0365 29.6676 25.977 29.7166 25.91L29.8036 25.7912L29.9496 25.8096L32.2814 26.1037L33.2487 22.2966L31.0641 21.4346L30.933 21.3828L30.9094 21.2439C30.8802 21.0726 30.8445 20.9039 30.8021 20.7377L18.4907 26.4249ZM18.2909 18.4652L20.6227 18.7593L20.7688 18.7777L20.8557 18.6589C20.9047 18.5919 20.9551 18.5323 21.0066 18.4796L21.382 18.0952C21.4331 18.0429 21.4913 17.9913 21.5572 17.9407L21.6739 17.851L21.6521 17.7054L21.3031 15.3812M21.3031 15.3812L25.0863 14.3244M21.3031 15.3812L21.0903 15.4406L21.023 15.1998M21.3031 15.3812L21.2703 15.1627L21.023 15.1998M25.0863 14.3244L25.9996 16.4881L26.0544 16.618L26.1939 16.6383C26.3639 16.6631 26.5344 16.6969 26.7052 16.7397C26.8739 16.782 27.0328 16.8329 27.182 16.8923L27.3168 16.946L27.4303 16.8556L29.2653 15.3933M25.0863 14.3244L25.0007 14.1216L25.231 14.0244M25.0863 14.3244L25.2983 14.2652L25.231 14.0244M29.2653 15.3933L32.0816 18.144M29.2653 15.3933L29.1074 15.2391L29.2821 15.0602M29.2653 15.3933L29.4379 15.2558L29.2821 15.0602M32.0816 18.144L32.215 17.9682L32.4142 18.1193M32.0816 18.144L32.2395 18.2982L32.4142 18.1193M32.4142 18.1193L29.2821 15.0602M32.4142 18.1193L30.8621 20.1641L29.2821 15.0602M29.2821 15.0602L27.2745 16.6601M29.2821 15.0602L27.2745 16.6601M21.4048 17.7425L21.023 15.1998M21.4048 17.7425L21.023 15.1998M27.2745 16.6601C27.1142 16.5963 26.9447 16.542 26.7659 16.4972C26.5872 16.4524 26.4085 16.417 26.2299 16.3909L25.231 14.0244M27.2745 16.6601L21.023 15.1998M25.231 14.0244L21.023 15.1998M25.27 19.269L25.2699 19.2691C24.4394 19.2841 23.7259 19.5937 23.1427 20.1909C22.5594 20.7881 22.2667 21.5086 22.2712 22.3392L22.2712 22.3393C22.2761 23.1727 22.5868 23.8919 23.1933 24.4842C23.7912 25.0682 24.5149 25.3581 25.3504 25.3483C26.186 25.3384 26.9026 25.0315 27.4866 24.4336C28.0706 23.8357 28.3605 23.112 28.3506 22.2765C28.3408 21.4409 28.0339 20.7242 27.436 20.1403C26.8295 19.5479 26.1032 19.2543 25.27 19.269Z" fill="white" stroke="#081F4A" stroke-width="0.5"/>
<path d="M30.7036 33.5487L30.7235 33.4575L30.6525 33.397C30.5718 33.3281 30.4994 33.2544 30.4353 33.1758L30.4351 33.1756C30.3673 33.0927 30.3027 33.0067 30.2413 32.9176L30.1915 32.8453L30.1039 32.8505L28.6429 32.9366L28.1905 30.5311L29.5855 30.0854L29.6729 30.0575L29.6909 29.9675C29.701 29.9168 29.7138 29.8699 29.7291 29.8266L29.8404 29.5108C29.8555 29.4678 29.8749 29.4234 29.8988 29.3775L29.9413 29.2962L29.8907 29.2196L29.0835 27.9977L30.9443 26.4075L32.0283 27.3907L32.0934 27.4497L32.1775 27.4246C32.2802 27.394 32.3853 27.3684 32.4931 27.3477C32.5996 27.3273 32.7027 27.3144 32.8027 27.3088L32.8929 27.3038L32.9333 27.2229L33.5867 25.9149L35.9002 26.7304L35.589 28.159L35.5691 28.2501L35.6401 28.3107C35.7209 28.3796 35.7934 28.4534 35.8579 28.5322C35.9254 28.615 35.9899 28.7009 36.0513 28.79L36.1011 28.8623L36.1887 28.8572L37.6497 28.771L38.1021 31.1765L36.7071 31.6223L36.6197 31.6502L36.6017 31.7402C36.5916 31.7909 36.5788 31.8377 36.5637 31.8806L36.4524 32.1964C36.4398 32.2321 36.4206 32.2693 36.3931 32.3079L36.3314 32.3949L36.3902 32.4839L37.1974 33.7059L35.3369 35.2957L34.2646 34.3173L34.1995 34.2579L34.1151 34.2831C34.0124 34.3137 33.9073 34.3393 33.7995 34.3599C33.693 34.3803 33.5899 34.3932 33.4899 34.3988L33.3997 34.4039L33.3593 34.4847L32.7059 35.7927L30.3924 34.9773L30.7036 33.5487ZM32.3458 29.1539L32.3457 29.1539C31.8803 29.3804 31.5584 29.7426 31.3854 30.2332C31.2125 30.7237 31.2362 31.2078 31.4567 31.676L31.4568 31.6761C31.6782 32.1458 32.0425 32.4707 32.5408 32.6463C33.0319 32.8195 33.5171 32.7934 33.9867 32.5685C34.4563 32.3437 34.7808 31.9822 34.9539 31.491C35.1271 30.9998 35.101 30.5147 34.8761 30.0451C34.6513 29.5755 34.2898 29.2509 33.7986 29.0778C33.3004 28.9022 32.8128 28.9269 32.3458 29.1539Z" fill="white" stroke="white" stroke-width="0.311563"/>
<rect x="0.5" y="0.5" width="47" height="47" rx="7.5" stroke="white"/>
</svg>
